<svg xmlns="http://www.w3.org/2000/svg" viewBox="0 0 3126 2048">
    <path d="M0 90q0 -38 29 -64q27 -27 65 -27h627q41 0 72.5 -30t31.5 -73t-31.5 -74t-72.5 -31t-73 32q-29 26 -65 26q-38 0 -64 -25.5t-26 -63.5t26 -64q85 -85 202 -85q118 0 201 83.5t83 201.5t-83 202t-201 84h-627q-38 0 -66 -27.5t-28 -64.5zM0 411q0 -35 29 -61 q27 -27 65 -27h1170q118 0 201.5 83.5t83.5 201.5t-83 200t-202 82q-121 0 -201 -81q-25 -26 -25 -65t24.5 -63.5t63.5 -24.5q38 0 66 25q30 30 72 30t72.5 -30t30.5 -73t-30.5 -74t-72.5 -31h-1170q-38 0 -66 -27.5t-28 -64.5zM283 662q0 -13 18 -13h153q11 0 21 15 q36 87 111.5 143.5t170.5 63.5l56 8q20 0 20 18l7 55q17 173 146 289t304 116q176 0 305.5 -115.5t147.5 -289.5l7 -62q0 -19 19 -19h174q144 0 245.5 -100.5t101.5 -242.5q0 -143 -101.5 -244.5t-245.5 -101.5h-736q-20 0 -20 -19v-146q0 -18 20 -18h736q143 0 264.5 71 t192 193t70.5 265q0 118 -45 216q121 159 121 353q0 150 -75.5 279t-204.5 204.5t-279 75.5q-247 0 -412 -185q-128 65 -285 65q-225 0 -398 -139.5t-220 -356.5q-136 -32 -240.5 -131t-145.5 -234v-4q-3 -5 -3 -9zM1155 1838q0 -37 29 -64l65 -69q26 -26 65 -26 q40 0 65.5 24.5t25.5 64.5q0 38 -24 64l-70 69q-25 28 -63 28t-65.5 -27t-27.5 -64zM1723 1368q115 109 264 109q155 0 267.5 -112t112.5 -268q0 -104 -55 -195q-153 153 -369 153h-36q-38 173 -184 313zM1896 1927q0 -37 26.5 -62.5t64.5 -25.5t65 25.5t27 62.5v218 q0 38 -27 65t-65 27t-64.5 -27t-26.5 -65v-218zM2488 1685q0 -39 24 -64q27 -27 65 -27.5t61 27.5l156 153q27 27 27 65q0 37 -27 64t-65 27t-64 -26l-153 -157q-24 -25 -24 -62zM2570 423q0 -37 27 -64l68 -69q32 -26 66 -26q31 0 63 26q27 27 27 64q0 35 -27 65l-68 69 q-26 26 -62 26q-40 0 -67 -26.5t-27 -64.5zM2731 1097q0 -38 27 -63q24 -28 61 -28h216q38 0 65 27t27 64t-27.5 64.5t-64.5 27.5h-216q-38 0 -63 -27t-25 -65z" />
</svg>
