<svg xmlns="http://www.w3.org/2000/svg" style="display: none;">
<!--!
 *  Font Awesome 4.7.0 by @davegandy - http://fontawesome.io - @fontawesome
 *  License - http://fontawesome.io/license (Font: SIL OFL 1.1, CSS: MIT License)
 -->
<defs><symbol id="fa-copy" viewBox="0 0 1792 1792"><path d="M1696 384q40 0 68 28t28 68v1216q0 40-28 68t-68 28H736q-40 0-68-28t-28-68v-288H96q-40 0-68-28t-28-68V640q0-40 20-88t48-76L476 68q28-28 76-48t88-20h416q40 0 68 28t28 68v328q68-40 128-40h416zm-544 213L853 896h299V597zM512 213L213 512h299V213zm196 647l316-316V128H640v416q0 40-28 68t-68 28H128v640h512v-256q0-40 20-88t48-76zm956 804V512h-384v416q0 40-28 68t-68 28H768v640h896z"></path></symbol></defs>
<!--!
 *  Weather Icons 2.0.8
 *  Updated September 19, 2015
 *  Weather themed icons for Bootstrap
 *  Author - Erik Flowers - erik@helloerik.com
 *  Email: erik@helloerik.com
 *  Twitter: http://twitter.com/Erik_UX
 *  
 *  Maintained at http://erikflowers.github.io/weather-icons
 *
 *  License
 *  
 *  - Font licensed under SIL OFL 1.1 -
 *    http://scripts.sil.org/OFL
 *  - CSS, SCSS and LESS are licensed under MIT License -
 *    http://opensource.org/licenses/mit-license.html
 *  - Documentation licensed under CC BY 3.0 -
 *    http://creativecommons.org/licenses/by/3.0/
 *  - Inspired by and works great as a companion with Font Awesome
 *    "Font Awesome by Dave Gandy - http://fontawesome.io"
 -->
<defs><symbol id="wi-day-sunny" viewBox="0 0 2048 2048"><path d="M0 1023.548q0-35.232 24.392-59.624 25.295-23.488 57.817-23.488h196.94q33.426 0 55.56 24.392t22.133 58.72-22.134 58.27-55.558 23.94H82.21q-33.427 0-57.818-24.392T0 1023.548zm275.536 667.61q0-33.425 22.585-58.72l141.833-137.317q21.682-22.585 56.914-22.585 34.33 0 57.366 21.682t23.036 55.107q0 35.233-23.488 61.431l-137.316 137.316q-58.721 46.074-118.345 0-22.585-24.391-22.585-56.914zm0-1334.316q0-33.426 22.585-58.721 28.005-23.488 61.43-23.488 31.62 0 56.915 23.488l137.316 141.833q23.488 21.682 23.488 56.914 0 34.33-23.036 57.366t-57.366 23.036q-35.232 0-56.914-23.488L298.121 416.466q-22.585-24.392-22.585-59.624zm245.724 666.706q0-134.606 67.755-250.692t183.84-183.841 250.693-67.755q101.18 0 194.23 40.201t160.353 107.504 107.053 160.353 39.75 194.23q0 135.51-67.304 251.145t-182.937 182.937-251.145 67.303-251.144-67.303-183.39-182.937-67.754-251.145zm163.515 0q0 140.93 98.922 240.755t239.851 99.826 240.755-99.826 99.826-240.755q0-139.123-99.826-237.593t-240.755-98.47q-140.026 0-239.4 98.47t-99.373 237.593zm256.564 748.916q0-34.329 23.94-57.817t58.27-23.489q35.232 0 58.72 23.489t23.488 57.817v191.52q0 35.233-23.94 59.624T1023.548 2048t-58.269-24.392-23.94-59.624v-191.52zm0-1493.314V82.21q0-33.427 24.392-57.818T1023.548 0t57.818 24.392 24.391 57.817v196.94q0 33.426-23.94 55.56t-58.269 22.133-58.269-22.134-23.94-55.558zm532.1 1270.175q0-33.426 21.682-54.204 21.682-22.585 54.204-22.585 35.233 0 57.817 22.585l140.93 137.317q23.489 25.295 23.489 58.72t-23.489 56.914q-57.817 45.17-115.634 0l-137.317-137.316q-21.681-24.392-21.681-61.43zm0-1052.457q0-36.136 21.682-56.914l137.317-141.833q25.295-23.488 56.914-23.488 34.329 0 58.269 24.391t23.94 57.818q0 36.136-23.489 59.624l-140.93 137.316q-26.198 23.488-57.817 23.488-32.522 0-54.204-23.036t-21.681-57.366zm217.72 526.68q0-34.329 23.488-59.624 23.488-23.488 55.107-23.488h195.134q33.425 0 58.269 24.843t24.843 58.27-24.843 57.817-58.27 24.391h-195.133q-33.426 0-56.01-23.94t-22.586-58.269z"></path></symbol><symbol id="wi-rain" viewBox="0 0 2117 2048"><path d="M0 967.031Q0 790.86 110.108 653.464t278.62-176.65q47.872-208.726 215.427-342.77T987.138 0q210.64 0 375.802 130.693t214.949 335.588h32.553q136.917 0 253.726 66.544t184.79 181.916 67.979 252.29q0 134.044-64.628 249.418t-176.651 184.31-245.11 72.767q-20.106 0-20.106-17.234v-135.96q0-18.19 20.107-18.19 130.214-6.703 222.609-104.364t92.394-230.747-99.575-231.225-235.535-98.14H1445.76q-18.192 0-18.192-17.234l-7.66-59.362q-17.234-165.64-142.182-277.184T987.138 172.342q-167.555 0-291.546 111.544T556.282 561.07l-7.66 54.575q0 19.149-20.106 19.149l-53.617 2.872q-127.342 15.32-213.992 109.15t-86.65 220.215q0 133.087 91.916 230.747t223.087 104.363q17.235 0 17.235 18.192v135.959q0 17.234-17.235 17.234-204.895-9.575-347.078-156.066T0 967.031zm546.708 682.667q0-6.702 3.83-20.107l166.597-588.836q9.575-29.68 33.032-45t47.394-15.32q10.533 0 24.894 2.873 36.384 6.702 55.054 37.34t8.138 67.98L719.05 1673.634q-19.15 65.107-84.256 65.107-5.745 0-11.49-1.914-8.617-2.873-10.532-2.873-33.51-9.574-49.787-33.99t-16.277-50.266zm268.088 287.237l248.938-896.18q6.703-29.68 30.64-45t49.787-15.32q13.404 0 27.766 2.873 33.511 9.575 49.788 39.735t6.702 65.585l-247.981 897.137q-5.745 25.852-29.681 44.043T899.052 2048q-14.362 0-25.851-4.787-30.64-7.66-52.66-40.213-17.235-26.81-5.745-66.065zm421.28-284.365q0-5.744 3.83-22.979l166.598-588.836q8.617-29.68 31.117-45t47.394-15.32q12.447 0 26.81 2.873 31.595 8.617 47.393 31.596t15.798 47.873q0 4.787-1.915 13.883t-1.914 11.968l-166.598 585.006q-5.745 29.682-28.724 47.395t-51.702 17.712l-24.894-4.787q-30.639-8.617-46.916-33.032t-16.276-48.352z"></path></symbol><symbol id="wi-cloud" viewBox="0 0 2216 2048"><path d="M0 1265.5q0-184 115-328t292-185q50-219 225-359.5t401-140.5q221 0 393.5 137t224.5 351h35q144 0 266 69.5t193 190.5 71 265q0 141-67.5 261t-185 192.5-257.5 76.5H512q-214-10-363-163t-149-367zm182 0q0 139 96.5 241.5T512 1616.5h1194q137-7 234-109.5t97-241.5q0-140-104-242.5t-247-102.5h-173q-18 0-18-19l-8-61q-18-173-149-290t-305-117q-175 0-304.5 117T582 840.5l-8 61q0 19-21 19h-56q-134 16-224.5 114t-90.5 231z"></path></symbol></defs>
</svg>